<svg width="945" height="761" viewBox="0 0 945 761" fill="none" xmlns="http://www.w3.org/2000/svg">
<g clip-path="url(#clip0_21_30)">
<path fill-rule="evenodd" clip-rule="evenodd" d="M161.289 0C79.7812 0 79.7812 0 79.7812 0C79.7812 0 80.9942 69.6067 79.7812 74.2467C78.6281 78.6587 3.35623 205.937 2.15467 211.017C0.941656 216.145 -2.01825 238.137 2.15467 257.909C6.27862 277.448 34.2989 296.94 40.9682 296.987C47.6161 297.033 215.628 296.987 215.628 296.987V265.724H52.612C52.612 265.724 36.8421 262.549 33.2052 250.093C29.503 237.413 32.2442 219.321 33.2145 214.924C33.7521 212.489 55.1994 174.775 75.4104 139.568C93.6234 107.843 109.944 84.7107 110.832 78.1547C111.688 71.8374 110.855 31.2627 110.855 31.2627H161.289V0Z" fill="black"/>
<path d="M188.827 167.125H158.935L154.822 184.745H128L159.919 78H188.538L220.458 184.745H192.998L188.827 167.125ZM183.323 144.043L173.939 105.669L164.613 144.043H183.323Z" fill="black"/>
<path d="M227.409 107.417H249.423V118.704C252.59 113.995 255.777 110.645 258.982 108.655C262.226 106.665 266.127 105.669 270.685 105.669C275.589 105.669 279.47 106.761 282.327 108.947C285.186 111.131 287.523 114.383 289.338 118.704C293.045 113.655 296.425 110.233 299.475 108.437C302.527 106.592 306.293 105.669 310.773 105.669C317.377 105.669 322.533 108.145 326.239 113.097C329.947 118 331.802 125.693 331.802 136.179V184.745H308.166V140.693C308.166 137.199 307.625 134.601 306.543 132.903C304.959 130.232 302.99 128.897 300.634 128.897C297.854 128.897 295.614 130.16 293.914 132.684C292.215 135.208 291.366 139.261 291.366 144.844V184.745H267.73V142.149C267.73 138.752 267.575 136.445 267.266 135.232C266.763 133.291 265.895 131.737 264.659 130.572C263.423 129.359 261.975 128.752 260.314 128.752C257.611 128.752 255.39 130.039 253.653 132.611C251.914 135.184 251.045 139.407 251.045 145.28V184.745H227.409V107.417Z" fill="black"/>
<path d="M341.708 163.339L365.112 160.572C366.077 164.067 367.429 166.567 369.168 168.071C370.905 169.576 373.222 170.328 376.118 170.328C379.285 170.328 381.738 169.479 383.476 167.78C384.828 166.519 385.504 164.94 385.504 163.047C385.504 160.912 384.616 159.261 382.838 158.096C381.564 157.271 378.185 156.252 372.701 155.037C364.513 153.241 358.817 151.591 355.612 150.087C352.445 148.533 349.761 145.936 347.56 142.295C345.396 138.655 344.314 134.504 344.314 129.844C344.314 124.747 345.493 120.355 347.849 116.664C350.205 112.976 353.449 110.233 357.581 108.437C361.714 106.592 367.256 105.669 374.208 105.669C381.545 105.669 386.952 106.373 390.428 107.781C393.942 109.189 396.858 111.373 399.176 114.335C401.532 117.296 403.482 121.3 405.026 126.349L382.665 129.116C382.085 126.64 381.12 124.82 379.769 123.655C377.914 122.101 375.674 121.325 373.049 121.325C370.384 121.325 368.433 121.932 367.197 123.145C366 124.311 365.402 125.743 365.402 127.441C365.402 129.335 366.174 130.767 367.718 131.737C369.263 132.708 372.624 133.581 377.8 134.359C385.638 135.475 391.47 137.028 395.294 139.019C399.117 141.009 402.033 143.848 404.042 147.537C406.089 151.227 407.112 155.28 407.112 159.697C407.112 164.164 406.03 168.508 403.868 172.732C401.744 176.955 398.364 180.328 393.73 182.852C389.134 185.328 382.858 186.567 374.902 186.567C363.664 186.567 355.65 184.552 350.861 180.523C346.11 176.493 343.06 170.765 341.708 163.339Z" fill="black"/>
<path d="M446.853 78V107.417H459.829V129.043H446.853V156.495C446.853 159.795 447.103 161.979 447.606 163.047C448.378 164.697 449.73 165.523 451.661 165.523C453.399 165.523 455.831 164.892 458.961 163.629L460.698 184.091C454.866 185.692 449.421 186.493 444.361 186.493C438.491 186.493 434.166 185.547 431.385 183.653C428.605 181.76 426.538 178.896 425.186 175.061C423.873 171.179 423.217 164.916 423.217 156.276V129.043H414.527V107.417H423.217V93.219L446.853 78Z" fill="black"/>
<path d="M539.542 153.436H492.27C492.695 158.193 493.718 161.736 495.341 164.067C497.619 167.416 500.593 169.091 504.262 169.091C506.579 169.091 508.781 168.363 510.866 166.907C512.141 165.984 513.511 164.357 514.979 162.028L538.21 164.721C534.657 172.489 530.37 178.071 525.35 181.469C520.329 184.819 513.126 186.493 503.741 186.493C495.591 186.493 489.181 185.061 484.507 182.197C479.835 179.285 475.954 174.697 472.863 168.436C469.813 162.125 468.287 154.723 468.287 146.227C468.287 134.14 471.357 124.359 477.498 116.883C483.678 109.408 492.193 105.669 503.046 105.669C511.851 105.669 518.803 107.345 523.901 110.693C528.999 114.043 532.881 118.897 535.545 125.257C538.21 131.616 539.542 139.892 539.542 150.087V153.436ZM515.559 139.237C515.095 133.509 513.859 129.407 511.851 126.931C509.882 124.456 507.274 123.219 504.03 123.219C500.285 123.219 497.291 125.087 495.051 128.824C493.622 131.155 492.714 134.625 492.329 139.237H515.559Z" fill="black"/>
<path d="M550.723 107.417H572.794V120.087C574.918 114.601 577.101 110.84 579.341 108.801C581.619 106.713 584.419 105.669 587.741 105.669C591.217 105.669 595.021 107.029 599.154 109.747L591.854 130.864C589.073 129.407 586.871 128.679 585.25 128.679C582.161 128.679 579.766 130.281 578.066 133.485C575.633 138 574.417 146.445 574.417 158.824V184.745H550.723V107.417Z" fill="black"/>
<path d="M670.871 78V184.745H648.801V173.313C645.71 178.168 642.891 181.445 640.342 183.144C636.943 185.377 633.159 186.493 628.987 186.493C620.607 186.493 614.197 182.488 609.754 174.479C605.351 166.469 603.15 156.737 603.15 145.28C603.15 132.465 605.583 122.66 610.45 115.864C615.354 109.068 621.573 105.669 629.103 105.669C632.773 105.669 636.094 106.447 639.069 108C642.081 109.553 644.745 111.883 647.062 114.991V78H670.871ZM647.235 145.863C647.235 139.795 646.213 135.28 644.166 132.32C642.119 129.309 639.531 127.805 636.403 127.805C633.661 127.805 631.363 129.237 629.509 132.101C627.655 134.965 626.729 139.771 626.729 146.519C626.729 152.829 627.675 157.465 629.567 160.425C631.498 163.339 633.873 164.795 636.693 164.795C639.705 164.795 642.215 163.313 644.223 160.353C646.231 157.392 647.235 152.561 647.235 145.863Z" fill="black"/>
<path d="M706.615 132.465L684.081 129.48C684.93 124.528 686.147 120.645 687.73 117.829C689.351 114.965 691.669 112.491 694.682 110.403C696.845 108.897 699.818 107.733 703.603 106.908C707.387 106.083 711.482 105.669 715.885 105.669C722.951 105.669 728.63 106.18 732.917 107.199C737.203 108.169 740.775 110.233 743.634 113.388C745.642 115.572 747.225 118.679 748.383 122.708C749.542 126.689 750.122 130.5 750.122 134.14V168.291C750.122 171.931 750.295 174.795 750.643 176.881C751.029 178.921 751.841 181.543 753.077 184.745H730.947C730.058 182.756 729.479 181.251 729.209 180.231C728.938 179.164 728.669 177.513 728.398 175.28C725.307 179.017 722.238 181.688 719.186 183.289C715.015 185.425 710.169 186.493 704.646 186.493C697.307 186.493 691.727 184.357 687.905 180.085C684.119 175.813 682.226 170.547 682.226 164.285C682.226 158.412 683.597 153.581 686.339 149.795C689.082 146.009 694.141 143.193 701.518 141.349C710.362 139.116 716.097 137.563 718.723 136.688C721.35 135.767 724.13 134.577 727.066 133.121C727.066 129.48 726.466 126.932 725.27 125.475C724.071 124.019 721.967 123.291 718.954 123.291C715.093 123.291 712.197 124.068 710.265 125.621C708.759 126.835 707.542 129.116 706.615 132.465ZM727.066 148.047C723.821 149.504 720.442 150.791 716.927 151.907C712.138 153.509 709.106 155.087 707.833 156.64C706.519 158.241 705.862 160.061 705.862 162.1C705.862 164.431 706.499 166.348 707.774 167.853C709.087 169.309 710.999 170.037 713.509 170.037C716.135 170.037 718.569 169.236 720.809 167.635C723.087 166.033 724.69 164.091 725.617 161.809C726.583 159.48 727.066 156.469 727.066 152.78V148.047Z" fill="black"/>
<path d="M764.315 107.417H786.329V118.704C789.495 113.995 792.682 110.645 795.887 108.655C799.131 106.665 803.033 105.669 807.59 105.669C812.494 105.669 816.375 106.761 819.234 108.947C822.091 111.131 824.427 114.383 826.243 118.704C829.951 113.655 833.33 110.233 836.381 108.437C839.433 106.592 843.198 105.669 847.678 105.669C854.282 105.669 859.438 108.145 863.145 113.097C866.853 118 868.706 125.693 868.706 136.179V184.745H845.071V140.693C845.071 137.199 844.53 134.601 843.449 132.903C841.866 130.232 839.895 128.897 837.539 128.897C834.759 128.897 832.519 130.16 830.819 132.684C829.121 135.208 828.271 139.261 828.271 144.844V184.745H804.635V142.149C804.635 138.752 804.481 136.445 804.171 135.232C803.67 133.291 802.801 131.737 801.565 130.572C800.329 129.359 798.881 128.752 797.219 128.752C794.517 128.752 792.295 130.039 790.558 132.611C788.819 135.184 787.951 139.407 787.951 145.28V184.745H764.315V107.417Z" fill="black"/>
<path d="M878.613 163.339L902.017 160.572C902.983 164.067 904.334 166.567 906.073 168.071C907.81 169.576 910.127 170.328 913.023 170.328C916.191 170.328 918.643 169.479 920.381 167.78C921.733 166.519 922.409 164.94 922.409 163.047C922.409 160.912 921.521 159.261 919.745 158.096C918.47 157.271 915.09 156.252 909.606 155.037C901.418 153.241 895.722 151.591 892.517 150.087C889.35 148.533 886.666 145.936 884.463 142.295C882.302 138.655 881.219 134.504 881.219 129.844C881.219 124.747 882.398 120.355 884.754 116.664C887.109 112.976 890.354 110.233 894.486 108.437C898.618 106.592 904.161 105.669 911.113 105.669C918.45 105.669 923.857 106.373 927.333 107.781C930.847 109.189 933.763 111.373 936.081 114.335C938.437 117.296 940.387 121.3 941.931 126.349L919.57 129.116C918.991 126.64 918.026 124.82 916.674 123.655C914.819 122.101 912.579 121.325 909.954 121.325C907.289 121.325 905.338 121.932 904.102 123.145C902.906 124.311 902.306 125.743 902.306 127.441C902.306 129.335 903.079 130.767 904.623 131.737C906.169 132.708 909.529 133.581 914.705 134.359C922.543 135.475 928.375 137.028 932.199 139.019C936.022 141.009 938.938 143.848 940.947 147.537C942.994 151.227 944.017 155.28 944.017 159.697C944.017 164.164 942.935 168.508 940.773 172.732C938.649 176.955 935.269 180.328 930.635 182.852C926.039 185.328 919.763 186.567 911.807 186.567C900.569 186.567 892.555 184.552 887.766 180.523C883.015 176.493 879.965 170.765 878.613 163.339Z" fill="black"/>
<path fill-rule="evenodd" clip-rule="evenodd" d="M320.289 232C238.781 232 238.781 232 238.781 232C238.781 232 239.994 301.607 238.781 306.247C237.628 310.659 162.356 437.937 161.155 443.017C159.942 448.145 156.982 470.137 161.155 489.909C165.279 509.448 193.299 528.94 199.968 528.987C206.616 529.033 374.628 528.987 374.628 528.987V497.724H211.612C211.612 497.724 195.842 494.549 192.205 482.093C188.503 469.413 191.244 451.321 192.215 446.924C192.752 444.489 214.199 406.775 234.41 371.568C252.623 339.843 268.944 316.711 269.832 310.155C270.688 303.837 269.855 263.263 269.855 263.263H320.289V232Z" fill="black"/>
<path d="M378.617 373.134L401.617 381.871C400.067 389.978 397.637 396.75 394.317 402.188C390.997 407.624 386.867 411.727 381.917 414.493C377.017 417.261 370.757 418.644 363.147 418.644C353.917 418.644 346.367 416.97 340.497 413.619C334.667 410.222 329.627 404.275 325.377 395.78C321.127 387.284 319.007 376.411 319.007 363.158C319.007 345.486 322.737 331.919 330.187 322.452C337.677 312.938 348.267 308.18 361.937 308.18C372.627 308.18 381.037 310.898 387.137 316.335C393.277 321.773 397.827 330.123 400.807 341.385L377.637 347.865C376.827 344.613 375.977 342.233 375.087 340.73C373.617 338.205 371.817 336.263 369.697 334.904C367.577 333.545 365.197 332.865 362.567 332.865C356.627 332.865 352.067 335.875 348.897 341.894C346.507 346.36 345.307 353.375 345.307 362.938C345.307 374.783 346.737 382.915 349.597 387.333C352.457 391.702 356.467 393.886 361.647 393.886C366.667 393.886 370.447 392.114 372.997 388.571C375.587 385.027 377.457 379.881 378.617 373.134Z" fill="black"/>
<path d="M412.967 310H436.547V349.322C439.757 345.147 442.937 342.161 446.107 340.365C449.277 338.569 453.017 337.671 457.347 337.671C463.757 337.671 468.797 340.122 472.467 345.025C476.177 349.928 478.027 357.452 478.027 367.6V416.751H454.327V374.226C454.327 369.371 453.617 365.948 452.187 363.958C450.757 361.92 448.757 360.9 446.167 360.9C443.307 360.9 440.987 362.259 439.217 364.978C437.437 367.696 436.547 372.575 436.547 379.614V416.751H412.967V310Z" fill="black"/>
<path d="M560.517 385.44H513.247C513.677 390.197 514.697 393.74 516.317 396.071C518.597 399.42 521.567 401.096 525.237 401.096C527.557 401.096 529.757 400.367 531.847 398.911C533.117 397.989 534.487 396.362 535.957 394.031L559.187 396.726C555.637 404.493 551.347 410.077 546.327 413.475C541.307 416.824 534.107 418.499 524.717 418.499C516.567 418.499 510.157 417.066 505.487 414.202C500.807 411.29 496.927 406.702 493.837 400.44C490.787 394.129 489.267 386.725 489.267 378.231C489.267 366.143 492.337 356.361 498.477 348.885C504.657 341.409 513.167 337.671 524.027 337.671C532.827 337.671 539.777 339.345 544.877 342.696C549.977 346.045 553.857 350.899 556.517 357.259C559.187 363.619 560.517 371.895 560.517 382.091V385.44ZM536.537 371.24C536.067 365.511 534.837 361.41 532.827 358.934C530.857 356.458 528.247 355.221 525.007 355.221C521.257 355.221 518.267 357.089 516.027 360.827C514.597 363.158 513.687 366.628 513.307 371.24H536.537Z" fill="black"/>
<path d="M571.637 339.419H593.657V350.705C596.817 345.997 600.007 342.646 603.217 340.656C606.457 338.666 610.357 337.671 614.917 337.671C619.817 337.671 623.697 338.764 626.557 340.948C629.417 343.133 631.757 346.384 633.567 350.705C637.277 345.656 640.657 342.233 643.707 340.438C646.757 338.593 650.517 337.671 655.007 337.671C661.607 337.671 666.767 340.147 670.467 345.099C674.177 350.002 676.027 357.696 676.027 368.181V416.751H652.397V372.697C652.397 369.201 651.857 366.604 650.777 364.906C649.187 362.234 647.217 360.9 644.867 360.9C642.087 360.9 639.847 362.162 638.147 364.686C636.447 367.211 635.597 371.264 635.597 376.846V416.751H611.957V374.152C611.957 370.754 611.807 368.448 611.497 367.235C610.997 365.293 610.127 363.74 608.887 362.575C607.657 361.361 606.207 360.755 604.547 360.755C601.847 360.755 599.617 362.04 597.887 364.614C596.147 367.187 595.277 371.41 595.277 377.283V416.751H571.637V339.419Z" fill="black"/>
<path d="M690.977 310H714.557V330.171H690.977V310ZM690.977 339.419H714.557V416.751H690.977V339.419Z" fill="black"/>
<path d="M725.327 395.343L748.737 392.576C749.697 396.071 751.047 398.571 752.787 400.076C754.527 401.581 756.847 402.333 759.737 402.333C762.907 402.333 765.357 401.483 767.097 399.785C768.447 398.522 769.127 396.945 769.127 395.051C769.127 392.916 768.237 391.265 766.457 390.1C765.187 389.274 761.807 388.256 756.327 387.042C748.137 385.245 742.437 383.594 739.237 382.091C736.067 380.536 733.377 377.94 731.177 374.298C729.017 370.658 727.937 366.507 727.937 361.847C727.937 356.749 729.117 352.355 731.467 348.667C733.827 344.977 737.067 342.233 741.207 340.438C745.337 338.593 750.877 337.671 757.827 337.671C765.167 337.671 770.577 338.375 774.047 339.782C777.567 341.191 780.477 343.375 782.797 346.336C785.157 349.298 787.107 353.303 788.647 358.352L766.287 361.118C765.707 358.643 764.737 356.822 763.387 355.658C761.537 354.103 759.297 353.327 756.667 353.327C754.007 353.327 752.057 353.934 750.817 355.147C749.617 356.312 749.027 357.744 749.027 359.444C749.027 361.337 749.797 362.769 751.337 363.74C752.887 364.71 756.247 365.585 761.417 366.361C769.257 367.478 775.097 369.031 778.917 371.021C782.737 373.012 785.657 375.852 787.667 379.541C789.707 383.231 790.737 387.284 790.737 391.702C790.737 396.168 789.647 400.513 787.487 404.736C785.367 408.959 781.987 412.334 777.347 414.858C772.757 417.333 766.477 418.572 758.527 418.572C747.287 418.572 739.267 416.557 734.487 412.528C729.737 408.498 726.687 402.77 725.327 395.343Z" fill="black"/>
<path d="M847.907 386.532L870.327 389.736C869.097 395.61 867.067 400.707 864.247 405.028C861.427 409.3 857.817 412.625 853.417 415.004C849.047 417.383 843.487 418.572 836.727 418.572C830.207 418.572 824.757 417.82 820.397 416.315C816.067 414.761 812.337 412.286 809.217 408.887C806.087 405.441 803.637 401.411 801.857 396.799C800.077 392.187 799.187 386.07 799.187 378.449C799.187 370.488 800.277 363.861 802.437 358.57C804.017 354.686 806.177 351.215 808.927 348.156C811.667 345.05 814.487 342.744 817.377 341.239C821.977 338.86 827.867 337.671 835.047 337.671C845.087 337.671 852.737 339.928 857.987 344.442C863.277 348.958 866.987 355.56 869.107 364.249L846.927 367.963C846.227 364.662 844.957 362.186 843.107 360.536C841.287 358.837 838.837 357.987 835.747 357.987C831.847 357.987 828.677 359.759 826.247 363.303C823.847 366.798 822.657 372.114 822.657 379.251C822.657 385.609 823.847 390.439 826.247 393.74C828.637 397.041 831.687 398.693 835.397 398.693C838.487 398.693 841.077 397.697 843.157 395.707C845.287 393.716 846.867 390.658 847.907 386.532Z" fill="black"/>
<path d="M878.957 310H902.537V349.322C905.747 345.147 908.927 342.161 912.097 340.365C915.267 338.569 919.007 337.671 923.337 337.671C929.747 337.671 934.787 340.122 938.457 345.025C942.167 349.928 944.017 357.452 944.017 367.6V416.751H920.327V374.226C920.327 369.371 919.607 365.948 918.177 363.958C916.747 361.92 914.747 360.9 912.157 360.9C909.297 360.9 906.977 362.259 905.207 364.978C903.427 367.696 902.537 372.575 902.537 379.614V416.751H878.957V310Z" fill="black"/>
<path d="M461.997 542H500.987C508.667 542 514.867 543.311 519.577 545.932C524.327 548.554 528.247 552.317 531.337 557.219C534.427 562.122 536.667 567.826 538.057 574.331C539.447 580.836 540.147 587.729 540.147 595.012C540.147 606.42 539.097 615.279 537.017 621.59C534.967 627.852 532.107 633.12 528.437 637.391C524.767 641.615 520.837 644.431 516.627 645.839C510.867 647.78 505.657 648.751 500.987 648.751H461.997V542ZM488.237 566.175V624.502H494.667C500.147 624.502 504.057 623.75 506.367 622.245C508.687 620.692 510.507 618.022 511.817 614.236C513.127 610.401 513.787 604.211 513.787 595.667C513.787 584.356 512.317 576.612 509.387 572.439C506.447 568.263 501.577 566.175 494.787 566.175H488.237Z" fill="black"/>
<path d="M553.177 542H576.747V562.171H553.177V542ZM553.177 571.419H576.747V648.751H553.177V571.419Z" fill="black"/>
<path d="M587.527 627.342L610.927 624.575C611.897 628.071 613.247 630.571 614.987 632.075C616.727 633.581 619.037 634.333 621.937 634.333C625.107 634.333 627.557 633.484 629.297 631.784C630.647 630.522 631.317 628.945 631.317 627.051C631.317 624.915 630.437 623.265 628.657 622.099C627.377 621.274 623.997 620.255 618.517 619.042C610.327 617.245 604.637 615.594 601.427 614.089C598.267 612.537 595.577 609.939 593.377 606.298C591.217 602.658 590.137 598.506 590.137 593.846C590.137 588.749 591.317 584.356 593.667 580.666C596.027 576.977 599.267 574.235 603.397 572.439C607.537 570.594 613.077 569.671 620.027 569.671C627.367 569.671 632.767 570.375 636.247 571.783C639.757 573.19 642.677 575.376 644.997 578.335C647.347 581.298 649.297 585.302 650.837 590.352L628.487 593.118C627.907 590.643 626.937 588.822 625.587 587.656C623.737 586.104 621.487 585.326 618.867 585.326C616.197 585.326 614.247 585.933 613.017 587.147C611.817 588.312 611.217 589.745 611.217 591.443C611.217 593.337 611.987 594.769 613.537 595.74C615.077 596.71 618.437 597.584 623.617 598.361C631.457 599.478 637.287 601.031 641.107 603.021C644.937 605.012 647.847 607.852 649.857 611.541C651.907 615.23 652.927 619.284 652.927 623.702C652.927 628.168 651.847 632.513 649.687 636.736C647.557 640.96 644.177 644.333 639.547 646.858C634.947 649.334 628.677 650.571 620.717 650.571C609.477 650.571 601.467 648.557 596.677 644.528C591.927 640.498 588.877 634.77 587.527 627.342Z" fill="black"/>
<path d="M664.337 678.169V571.419H686.407V582.851C689.457 578.045 692.257 574.793 694.807 573.093C698.247 570.812 702.047 569.671 706.217 569.671C714.447 569.671 720.797 573.627 725.277 581.54C729.797 589.452 732.057 599.235 732.057 610.886C732.057 623.75 729.607 633.581 724.697 640.377C719.797 647.125 713.597 650.499 706.107 650.499C702.477 650.499 699.157 649.722 696.147 648.168C693.167 646.615 690.507 644.309 688.147 641.251V678.169H664.337ZM687.977 610.303C687.977 616.419 688.997 620.96 691.047 623.921C693.087 626.882 695.677 628.361 698.807 628.361C701.547 628.361 703.847 626.954 705.697 624.139C707.557 621.274 708.477 616.445 708.477 609.648C708.477 603.386 707.517 598.799 705.587 595.885C703.657 592.924 701.297 591.443 698.517 591.443C695.507 591.443 692.997 592.924 690.987 595.885C688.977 598.846 687.977 603.652 687.977 610.303Z" fill="black"/>
<path d="M808.057 648.751H786.047V636.226C782.767 641.372 779.447 645.038 776.087 647.222C772.757 649.406 768.667 650.499 763.797 650.499C757.317 650.499 752.217 648.072 748.507 643.217C744.837 638.314 743.007 630.79 743.007 620.643V571.419H766.697V613.945C766.697 618.799 767.417 622.245 768.847 624.284C770.267 626.324 772.277 627.342 774.867 627.342C777.687 627.342 779.987 625.984 781.757 623.265C783.577 620.545 784.487 615.668 784.487 608.629V571.419H808.057V648.751Z" fill="black"/>
<path d="M887.307 648.751H865.287V636.226C862.007 641.372 858.687 645.038 855.327 647.222C852.007 649.406 847.917 650.499 843.047 650.499C836.557 650.499 831.467 648.072 827.757 643.217C824.087 638.314 822.247 630.79 822.247 620.643V571.419H845.947V613.945C845.947 618.799 846.657 622.245 848.087 624.284C849.517 626.324 851.527 627.342 854.107 627.342C856.927 627.342 859.227 625.984 861.007 623.265C862.817 620.545 863.727 615.668 863.727 608.629V571.419H887.307V648.751Z" fill="black"/>
<path d="M930.167 542V571.419H943.147V593.046H930.167V620.498C930.167 623.799 930.417 625.984 930.927 627.051C931.697 628.701 933.047 629.528 934.977 629.528C936.717 629.528 939.147 628.896 942.277 627.634L944.017 648.096C938.187 649.698 932.737 650.499 927.677 650.499C921.807 650.499 917.487 649.552 914.707 647.659C911.927 645.765 909.857 642.901 908.507 639.066C907.197 635.183 906.537 628.921 906.537 620.28V593.046H897.847V571.419H906.537V557.219L930.167 542Z" fill="black"/>
<path fill-rule="evenodd" clip-rule="evenodd" d="M479.289 464C397.781 464 397.781 464 397.781 464C397.781 464 398.994 533.607 397.781 538.247C396.628 542.659 321.356 669.937 320.155 675.017C318.942 680.145 315.982 702.137 320.155 721.909C324.279 741.448 352.299 760.94 358.968 760.987C365.616 761.033 533.628 760.987 533.628 760.987V729.724H370.612C370.612 729.724 354.842 726.549 351.205 714.093C347.503 701.413 350.244 683.321 351.215 678.924C351.752 676.489 373.199 638.775 393.41 603.568C411.623 571.843 427.944 548.711 428.832 542.155C429.688 535.837 428.855 495.263 428.855 495.263H479.289V464Z" fill="black"/>
</g>
<defs>
<clipPath id="clip0_21_30">
<rect width="945" height="761" fill="white"/>
</clipPath>
</defs>
</svg>
